<svg xmlns="http://www.w3.org/2000/svg" width="760" height="556" viewBox="0 0 760 556" role="img" aria-labelledby="title desc">
  <title id="title">AI Engineering Coach metrics</title>
  <desc id="desc">Sanitized aggregate AI-assisted engineering practice metrics.</desc>
  <rect width="760" height="556" rx="12" fill="#0d1117"/>
  <rect x="1" y="1" width="758" height="554" rx="12" fill="none" stroke="#30363d"/>
  <text x="28" y="38" fill="#f0f6fc" font-family="Inter,Segoe UI,Arial,sans-serif" font-size="24" font-weight="800">AI Engineering Coach</text>
  <text x="28" y="62" fill="#8b949e" font-family="Inter,Segoe UI,Arial,sans-serif" font-size="13">Public, sanitized aggregates only | 2026-05-07 to 2026-06-05 | 1,113 requests</text>
  <text x="28" y="82" fill="#6e7681" font-family="Inter,Segoe UI,Arial,sans-serif" font-size="12">Updated 2026-06-06</text>
  <g font-family="Inter,Segoe UI,Arial,sans-serif">
    <g>
      <rect x="28" y="104" width="158" height="78" rx="8" fill="#161b22" stroke="#30363d"/>
      <text x="42" y="128" fill="#8b949e" font-size="12">AI Practice Score</text>
      <text x="42" y="154" fill="#f0f6fc" font-size="22" font-weight="700">57/100</text>
      <rect x="42" y="165" width="130" height="5" rx="3" fill="#30363d"/>
      <rect x="42" y="165" width="74" height="5" rx="3" fill="#d29922"/>
    </g>
    <g>
      <rect x="204" y="104" width="158" height="78" rx="8" fill="#161b22" stroke="#30363d"/>
      <text x="218" y="128" fill="#8b949e" font-size="12">Anti-pattern Rate</text>
      <text x="218" y="154" fill="#f0f6fc" font-size="22" font-weight="700">743/100 req</text>
      <rect x="218" y="165" width="130" height="5" rx="3" fill="#30363d"/>
      <rect x="218" y="165" width="0" height="5" rx="3" fill="#f85149"/>
    </g>
    <g>
      <rect x="380" y="104" width="158" height="78" rx="8" fill="#161b22" stroke="#30363d"/>
      <text x="394" y="128" fill="#8b949e" font-size="12">Resolution Rate</text>
      <text x="394" y="154" fill="#f0f6fc" font-size="22" font-weight="700">4%</text>
      <rect x="394" y="165" width="130" height="5" rx="3" fill="#30363d"/>
      <rect x="394" y="165" width="5" height="5" rx="3" fill="#f85149"/>
    </g>
    <g>
      <rect x="556" y="104" width="158" height="78" rx="8" fill="#161b22" stroke="#30363d"/>
      <text x="570" y="128" fill="#8b949e" font-size="12">Context Health</text>
      <text x="570" y="154" fill="#f0f6fc" font-size="22" font-weight="700">97/100</text>
      <rect x="570" y="165" width="130" height="5" rx="3" fill="#30363d"/>
      <rect x="570" y="165" width="126" height="5" rx="3" fill="#3fb950"/>
    </g>
    <g>
      <rect x="28" y="206" width="158" height="78" rx="8" fill="#161b22" stroke="#30363d"/>
      <text x="42" y="230" fill="#8b949e" font-size="12">Prompt Quality</text>
      <text x="42" y="256" fill="#f0f6fc" font-size="22" font-weight="700">72/100</text>
      <rect x="42" y="267" width="130" height="5" rx="3" fill="#30363d"/>
      <rect x="42" y="267" width="94" height="5" rx="3" fill="#d29922"/>
    </g>
    <g>
      <rect x="204" y="206" width="158" height="78" rx="8" fill="#161b22" stroke="#30363d"/>
      <text x="218" y="230" fill="#8b949e" font-size="12">Review / Verification</text>
      <text x="218" y="256" fill="#f0f6fc" font-size="22" font-weight="700">72/100</text>
      <rect x="218" y="267" width="130" height="5" rx="3" fill="#30363d"/>
      <rect x="218" y="267" width="94" height="5" rx="3" fill="#d29922"/>
    </g>
    <g>
      <rect x="380" y="206" width="158" height="78" rx="8" fill="#161b22" stroke="#30363d"/>
      <text x="394" y="230" fill="#8b949e" font-size="12">Tool Mastery</text>
      <text x="394" y="256" fill="#f0f6fc" font-size="22" font-weight="700">81/100</text>
      <rect x="394" y="267" width="130" height="5" rx="3" fill="#30363d"/>
      <rect x="394" y="267" width="105" height="5" rx="3" fill="#3fb950"/>
    </g>
    <g>
      <rect x="556" y="206" width="158" height="78" rx="8" fill="#161b22" stroke="#30363d"/>
      <text x="570" y="230" fill="#8b949e" font-size="12">Agentic SDLC Coverage</text>
      <text x="570" y="256" fill="#f0f6fc" font-size="22" font-weight="700">70/100</text>
      <rect x="570" y="267" width="130" height="5" rx="3" fill="#30363d"/>
      <rect x="570" y="267" width="91" height="5" rx="3" fill="#d29922"/>
    </g>
  </g>
  <g font-family="Inter,Segoe UI,Arial,sans-serif">
    <text x="28" y="318" fill="#f0f6fc" font-size="16" font-weight="800">Workspace Context Health</text>
    <rect x="28" y="332" width="704" height="180" rx="8" fill="#0d1117" stroke="#30363d"/>
    <text x="42" y="352" fill="#8b949e" font-size="11">Workspace</text>
    <text x="298" y="352" fill="#8b949e" font-size="11">Score</text>
    <text x="384" y="352" fill="#8b949e" font-size="11">Verdict</text>
    <text x="490" y="352" fill="#8b949e" font-size="11">Avg</text>
    <text x="570" y="352" fill="#8b949e" font-size="11">Peak</text>
    <text x="650" y="352" fill="#8b949e" font-size="11">Comp</text>
    <text x="704" y="352" fill="#8b949e" font-size="11" text-anchor="end">Tokens</text>
    <g>
      <rect x="28" y="365" width="704" height="34" fill="#0d1117"/>
      <text x="42" y="386" fill="#f0f6fc" font-size="12" font-weight="600">ai-coach-profile-publisher</text>
      <text x="298" y="386" fill="#f0f6fc" font-size="12">98/100</text>
      <text x="384" y="386" fill="#f0f6fc" font-size="12">limited</text>
      <text x="490" y="386" fill="#f0f6fc" font-size="12">28.2%</text>
      <text x="570" y="386" fill="#f0f6fc" font-size="12">99.6%</text>
      <text x="650" y="386" fill="#f0f6fc" font-size="12">0</text>
      <text x="704" y="386" fill="#f0f6fc" font-size="12" text-anchor="end">48</text>
    </g>
    <g>
      <rect x="28" y="399" width="704" height="34" fill="#161b22"/>
      <text x="42" y="420" fill="#f0f6fc" font-size="12" font-weight="600">DecisionRisk</text>
      <text x="298" y="420" fill="#f0f6fc" font-size="12">97/100</text>
      <text x="384" y="420" fill="#f0f6fc" font-size="12">limited</text>
      <text x="490" y="420" fill="#f0f6fc" font-size="12">34.6%</text>
      <text x="570" y="420" fill="#f0f6fc" font-size="12">99.9%</text>
      <text x="650" y="420" fill="#f0f6fc" font-size="12">0</text>
      <text x="704" y="420" fill="#f0f6fc" font-size="12" text-anchor="end">118</text>
    </g>
    <g>
      <rect x="28" y="433" width="704" height="34" fill="#0d1117"/>
      <text x="42" y="454" fill="#f0f6fc" font-size="12" font-weight="600">Open_Prior_Auth_Workbench</text>
      <text x="298" y="454" fill="#f0f6fc" font-size="12">96/100</text>
      <text x="384" y="454" fill="#f0f6fc" font-size="12">limited</text>
      <text x="490" y="454" fill="#f0f6fc" font-size="12">37%</text>
      <text x="570" y="454" fill="#f0f6fc" font-size="12">100%</text>
      <text x="650" y="454" fill="#f0f6fc" font-size="12">0</text>
      <text x="704" y="454" fill="#f0f6fc" font-size="12" text-anchor="end">448</text>
    </g>
    <g>
      <rect x="28" y="467" width="704" height="34" fill="#161b22"/>
      <text x="42" y="488" fill="#f0f6fc" font-size="12" font-weight="600">codex-telegram-remote</text>
      <text x="298" y="488" fill="#f0f6fc" font-size="12">98/100</text>
      <text x="384" y="488" fill="#f0f6fc" font-size="12">limited</text>
      <text x="490" y="488" fill="#f0f6fc" font-size="12">29.8%</text>
      <text x="570" y="488" fill="#f0f6fc" font-size="12">99.9%</text>
      <text x="650" y="488" fill="#f0f6fc" font-size="12">0</text>
      <text x="704" y="488" fill="#f0f6fc" font-size="12" text-anchor="end">83</text>
    </g>
  </g>
</svg>
