<svg xmlns="http://www.w3.org/2000/svg" width="760" height="330" viewBox="0 0 760 330" role="img" aria-labelledby="title desc">
  <title id="title">AI Engineering Coach metrics</title>
  <desc id="desc">Sanitized aggregate AI-assisted engineering practice metrics.</desc>
  <rect width="760" height="330" rx="12" fill="#0d1117"/>
  <rect x="1" y="1" width="758" height="328" rx="12" fill="none" stroke="#30363d"/>
  <text x="28" y="38" fill="#f0f6fc" font-family="Inter,Segoe UI,Arial,sans-serif" font-size="24" font-weight="800">AI Engineering Coach</text>
  <text x="28" y="62" fill="#8b949e" font-family="Inter,Segoe UI,Arial,sans-serif" font-size="13">Public, sanitized aggregates only • 2026-05-01 to 2026-05-30 • 1,324 requests</text>
  <text x="28" y="82" fill="#6e7681" font-family="Inter,Segoe UI,Arial,sans-serif" font-size="12">Updated 2026-05-31</text>
  <g font-family="Inter,Segoe UI,Arial,sans-serif">
    <g>
      <rect x="28" y="104" width="158" height="78" rx="8" fill="#161b22" stroke="#30363d"/>
      <text x="42" y="128" fill="#8b949e" font-size="12">AI Practice Score</text>
      <text x="42" y="154" fill="#f0f6fc" font-size="22" font-weight="700">47/100</text>
      <rect x="42" y="165" width="130" height="5" rx="3" fill="#30363d"/>
      <rect x="42" y="165" width="61" height="5" rx="3" fill="#d29922"/>
    </g>
    <g>
      <rect x="204" y="104" width="158" height="78" rx="8" fill="#161b22" stroke="#30363d"/>
      <text x="218" y="128" fill="#8b949e" font-size="12">Anti-pattern Rate</text>
      <text x="218" y="154" fill="#f0f6fc" font-size="22" font-weight="700">731/100 req</text>
      <rect x="218" y="165" width="130" height="5" rx="3" fill="#30363d"/>
      <rect x="218" y="165" width="0" height="5" rx="3" fill="#f85149"/>
    </g>
    <g>
      <rect x="380" y="104" width="158" height="78" rx="8" fill="#161b22" stroke="#30363d"/>
      <text x="394" y="128" fill="#8b949e" font-size="12">Resolution Rate</text>
      <text x="394" y="154" fill="#f0f6fc" font-size="22" font-weight="700">13%</text>
      <rect x="394" y="165" width="130" height="5" rx="3" fill="#30363d"/>
      <rect x="394" y="165" width="17" height="5" rx="3" fill="#f85149"/>
    </g>
    <g>
      <rect x="556" y="104" width="158" height="78" rx="8" fill="#161b22" stroke="#30363d"/>
      <text x="570" y="128" fill="#8b949e" font-size="12">Context Health</text>
      <text x="570" y="154" fill="#f0f6fc" font-size="22" font-weight="700">4/100</text>
      <rect x="570" y="165" width="130" height="5" rx="3" fill="#30363d"/>
      <rect x="570" y="165" width="5" height="5" rx="3" fill="#f85149"/>
    </g>
    <g>
      <rect x="28" y="206" width="158" height="78" rx="8" fill="#161b22" stroke="#30363d"/>
      <text x="42" y="230" fill="#8b949e" font-size="12">Prompt Quality</text>
      <text x="42" y="256" fill="#f0f6fc" font-size="22" font-weight="700">76/100</text>
      <rect x="42" y="267" width="130" height="5" rx="3" fill="#30363d"/>
      <rect x="42" y="267" width="99" height="5" rx="3" fill="#3fb950"/>
    </g>
    <g>
      <rect x="204" y="206" width="158" height="78" rx="8" fill="#161b22" stroke="#30363d"/>
      <text x="218" y="230" fill="#8b949e" font-size="12">Review / Verification</text>
      <text x="218" y="256" fill="#f0f6fc" font-size="22" font-weight="700">84/100</text>
      <rect x="218" y="267" width="130" height="5" rx="3" fill="#30363d"/>
      <rect x="218" y="267" width="109" height="5" rx="3" fill="#3fb950"/>
    </g>
    <g>
      <rect x="380" y="206" width="158" height="78" rx="8" fill="#161b22" stroke="#30363d"/>
      <text x="394" y="230" fill="#8b949e" font-size="12">Tool Mastery</text>
      <text x="394" y="256" fill="#f0f6fc" font-size="22" font-weight="700">81/100</text>
      <rect x="394" y="267" width="130" height="5" rx="3" fill="#30363d"/>
      <rect x="394" y="267" width="105" height="5" rx="3" fill="#3fb950"/>
    </g>
    <g>
      <rect x="556" y="206" width="158" height="78" rx="8" fill="#161b22" stroke="#30363d"/>
      <text x="570" y="230" fill="#8b949e" font-size="12">Agentic SDLC Coverage</text>
      <text x="570" y="256" fill="#f0f6fc" font-size="22" font-weight="700">70/100</text>
      <rect x="570" y="267" width="130" height="5" rx="3" fill="#30363d"/>
      <rect x="570" y="267" width="91" height="5" rx="3" fill="#d29922"/>
    </g>
  </g>
</svg>
