<svg xmlns="http://www.w3.org/2000/svg" width="760" height="678" viewBox="0 0 760 678" role="img" aria-labelledby="title desc">
  <title id="title">AI Engineering Coach metrics</title>
  <desc id="desc">Sanitized aggregate AI-assisted engineering practice metrics.</desc>
  <rect width="760" height="678" rx="12" fill="#0d1117"/>
  <rect x="1" y="1" width="758" height="676" rx="12" fill="none" stroke="#30363d"/>
  <text x="28" y="38" fill="#f0f6fc" font-family="Inter,Segoe UI,Arial,sans-serif" font-size="24" font-weight="800">AI Engineering Coach</text>
  <text x="28" y="62" fill="#8b949e" font-family="Inter,Segoe UI,Arial,sans-serif" font-size="13">Public, sanitized aggregates only | 2026-05-29 to 2026-06-27 | 1,172 requests</text>
  <text x="28" y="82" fill="#6e7681" font-family="Inter,Segoe UI,Arial,sans-serif" font-size="12">Updated 2026-06-27</text>
  <g font-family="Inter,Segoe UI,Arial,sans-serif">
    <g>
      <rect x="28" y="104" width="214" height="78" rx="8" fill="#161b22" stroke="#30363d"/>
      <text x="42" y="128" fill="#8b949e" font-size="12">AI Practice Score</text>
      <text x="42" y="154" fill="#f0f6fc" font-size="22" font-weight="700">57/100</text>
      <rect x="42" y="165" width="186" height="5" rx="3" fill="#30363d"/>
      <rect x="42" y="165" width="106" height="5" rx="3" fill="#d29922"/>
    </g>
    <g>
      <rect x="264" y="104" width="214" height="78" rx="8" fill="#161b22" stroke="#30363d"/>
      <text x="278" y="128" fill="#8b949e" font-size="12">Anti-pattern Rate</text>
      <text x="278" y="154" fill="#f0f6fc" font-size="22" font-weight="700">876/100 req</text>
      <rect x="278" y="165" width="186" height="5" rx="3" fill="#30363d"/>
      <rect x="278" y="165" width="0" height="5" rx="3" fill="#f85149"/>
    </g>
    <g>
      <rect x="500" y="104" width="214" height="78" rx="8" fill="#161b22" stroke="#30363d"/>
      <text x="514" y="128" fill="#8b949e" font-size="12">Resolution Rate</text>
      <text x="514" y="154" fill="#f0f6fc" font-size="22" font-weight="700">0%</text>
      <rect x="514" y="165" width="186" height="5" rx="3" fill="#30363d"/>
      <rect x="514" y="165" width="0" height="5" rx="3" fill="#f85149"/>
    </g>
    <g>
      <rect x="28" y="206" width="214" height="78" rx="8" fill="#161b22" stroke="#30363d"/>
      <text x="42" y="230" fill="#8b949e" font-size="12">Context Mgmt</text>
      <text x="42" y="256" fill="#f0f6fc" font-size="22" font-weight="700">93/100</text>
      <rect x="42" y="267" width="186" height="5" rx="3" fill="#30363d"/>
      <rect x="42" y="267" width="173" height="5" rx="3" fill="#3fb950"/>
    </g>
    <g>
      <rect x="264" y="206" width="214" height="78" rx="8" fill="#161b22" stroke="#30363d"/>
      <text x="278" y="230" fill="#8b949e" font-size="12">Context Quality</text>
      <text x="278" y="256" fill="#f0f6fc" font-size="22" font-weight="700">47/100</text>
      <rect x="278" y="267" width="186" height="5" rx="3" fill="#30363d"/>
      <rect x="278" y="267" width="87" height="5" rx="3" fill="#d29922"/>
    </g>
    <g>
      <rect x="500" y="206" width="214" height="78" rx="8" fill="#161b22" stroke="#30363d"/>
      <text x="514" y="230" fill="#8b949e" font-size="12">Prompt Quality</text>
      <text x="514" y="256" fill="#f0f6fc" font-size="22" font-weight="700">66/100</text>
      <rect x="514" y="267" width="186" height="5" rx="3" fill="#30363d"/>
      <rect x="514" y="267" width="123" height="5" rx="3" fill="#d29922"/>
    </g>
    <g>
      <rect x="28" y="308" width="214" height="78" rx="8" fill="#161b22" stroke="#30363d"/>
      <text x="42" y="332" fill="#8b949e" font-size="12">Review / Verification</text>
      <text x="42" y="358" fill="#f0f6fc" font-size="22" font-weight="700">72/100</text>
      <rect x="42" y="369" width="186" height="5" rx="3" fill="#30363d"/>
      <rect x="42" y="369" width="134" height="5" rx="3" fill="#d29922"/>
    </g>
    <g>
      <rect x="264" y="308" width="214" height="78" rx="8" fill="#161b22" stroke="#30363d"/>
      <text x="278" y="332" fill="#8b949e" font-size="12">Tool Mastery</text>
      <text x="278" y="358" fill="#f0f6fc" font-size="22" font-weight="700">81/100</text>
      <rect x="278" y="369" width="186" height="5" rx="3" fill="#30363d"/>
      <rect x="278" y="369" width="151" height="5" rx="3" fill="#3fb950"/>
    </g>
    <g>
      <rect x="500" y="308" width="214" height="78" rx="8" fill="#161b22" stroke="#30363d"/>
      <text x="514" y="332" fill="#8b949e" font-size="12">Agentic SDLC Coverage</text>
      <text x="514" y="358" fill="#f0f6fc" font-size="22" font-weight="700">85/100</text>
      <rect x="514" y="369" width="186" height="5" rx="3" fill="#30363d"/>
      <rect x="514" y="369" width="158" height="5" rx="3" fill="#3fb950"/>
    </g>
  </g>
  <g font-family="Inter,Segoe UI,Arial,sans-serif">
    <text x="28" y="420" fill="#f0f6fc" font-size="16" font-weight="800">Workspace Context Health</text>
    <rect x="28" y="434" width="704" height="214" rx="8" fill="#0d1117" stroke="#30363d"/>
    <text x="42" y="454" fill="#8b949e" font-size="11">Workspace</text>
    <text x="256" y="454" fill="#8b949e" font-size="11">Mgmt</text>
    <text x="324" y="454" fill="#8b949e" font-size="11">Quality</text>
    <text x="400" y="454" fill="#8b949e" font-size="11">Agentic</text>
    <text x="474" y="454" fill="#8b949e" font-size="11">Instr</text>
    <text x="530" y="454" fill="#8b949e" font-size="11">PD</text>
    <text x="582" y="454" fill="#8b949e" font-size="11">Files</text>
    <text x="632" y="454" fill="#8b949e" font-size="11">Signals</text>
    <g>
      <rect x="28" y="453" width="704" height="34" fill="#0d1117"/>
      <text x="42" y="474" fill="#f0f6fc" font-size="12" font-weight="600">ai-coach-profile-publisher</text>
      <text x="256" y="474" fill="#f0f6fc" font-size="12">90</text>
      <text x="324" y="474" fill="#f0f6fc" font-size="12">55</text>
      <text x="400" y="474" fill="#f0f6fc" font-size="12">30</text>
      <text x="474" y="474" fill="#f0f6fc" font-size="12">87</text>
      <text x="530" y="474" fill="#f0f6fc" font-size="12">75</text>
      <text x="582" y="474" fill="#f0f6fc" font-size="12">8</text>
      <text x="632" y="474" fill="#f0f6fc" font-size="11">Instr Skills</text>
    </g>
    <g>
      <rect x="28" y="487" width="704" height="34" fill="#161b22"/>
      <text x="42" y="508" fill="#f0f6fc" font-size="12" font-weight="600">DecisionRisk</text>
      <text x="256" y="508" fill="#f0f6fc" font-size="12">0</text>
      <text x="324" y="508" fill="#f0f6fc" font-size="12">45</text>
      <text x="400" y="508" fill="#f0f6fc" font-size="12">30</text>
      <text x="474" y="508" fill="#f0f6fc" font-size="12">100</text>
      <text x="530" y="508" fill="#f0f6fc" font-size="12">50</text>
      <text x="582" y="508" fill="#f0f6fc" font-size="12">1</text>
      <text x="632" y="508" fill="#f0f6fc" font-size="11">Instr</text>
    </g>
    <g>
      <rect x="28" y="521" width="704" height="34" fill="#0d1117"/>
      <text x="42" y="542" fill="#f0f6fc" font-size="12" font-weight="600">Open_Prior_Auth_Workbench</text>
      <text x="256" y="542" fill="#f0f6fc" font-size="12">91</text>
      <text x="324" y="542" fill="#f0f6fc" font-size="12">44</text>
      <text x="400" y="542" fill="#f0f6fc" font-size="12">40</text>
      <text x="474" y="542" fill="#f0f6fc" font-size="12">90</text>
      <text x="530" y="542" fill="#f0f6fc" font-size="12">50</text>
      <text x="582" y="542" fill="#f0f6fc" font-size="12">1</text>
      <text x="632" y="542" fill="#f0f6fc" font-size="11">Instr</text>
    </g>
    <g>
      <rect x="28" y="555" width="704" height="34" fill="#161b22"/>
      <text x="42" y="576" fill="#f0f6fc" font-size="12" font-weight="600">codex-telegram-remote</text>
      <text x="256" y="576" fill="#f0f6fc" font-size="12">0</text>
      <text x="324" y="576" fill="#f0f6fc" font-size="12">0</text>
      <text x="400" y="576" fill="#f0f6fc" font-size="12">20</text>
      <text x="474" y="576" fill="#f0f6fc" font-size="12">0</text>
      <text x="530" y="576" fill="#f0f6fc" font-size="12">0</text>
      <text x="582" y="576" fill="#f0f6fc" font-size="12">0</text>
      <text x="632" y="576" fill="#f0f6fc" font-size="11">-</text>
    </g>
    <g>
      <rect x="28" y="589" width="704" height="34" fill="#0d1117"/>
      <text x="42" y="610" fill="#f0f6fc" font-size="12" font-weight="600">CanopyLedger</text>
      <text x="256" y="610" fill="#f0f6fc" font-size="12">94</text>
      <text x="324" y="610" fill="#f0f6fc" font-size="12">46</text>
      <text x="400" y="610" fill="#f0f6fc" font-size="12">40</text>
      <text x="474" y="610" fill="#f0f6fc" font-size="12">100</text>
      <text x="530" y="610" fill="#f0f6fc" font-size="12">50</text>
      <text x="582" y="610" fill="#f0f6fc" font-size="12">1</text>
      <text x="632" y="610" fill="#f0f6fc" font-size="11">Instr</text>
    </g>
  </g>
</svg>
